<svg width="40" height="44" viewBox="0 0 40 44" fill="none" xmlns="http://www.w3.org/2000/svg">
<path d="M17.7817 9.20041V8.70557H37.9714V9.20041L20.5034 42.8499H35.3982C36.3549 42.8499 37.2291 42.6849 38.0209 42.355C38.8126 42.0252 39.3405 41.5468 39.6044 40.92L40.0003 41.1179C39.9343 41.2829 39.8188 41.4973 39.6539 41.7612C39.5219 41.9922 39.0766 42.3221 38.3178 42.7509C37.559 43.1468 36.6353 43.3447 35.5467 43.3447H16.4951V42.8499L33.8642 9.20041H17.7817Z" fill="#924648"/>
<path d="M19.9918 2.17732C16.9897 1.02268 14.1526 0.445361 11.4804 0.445361C8.84124 0.445361 6.77938 1.00618 5.29485 2.12783C3.81031 3.24948 3.06804 4.8 3.06804 6.77938C3.06804 9.18763 4.32165 11.0515 6.82887 12.3711C7.95052 12.932 9.17113 13.4598 10.4907 13.9546C11.8433 14.4165 13.1959 14.9443 14.5485 15.5381C15.901 16.132 17.1381 16.8082 18.2598 17.567C19.3814 18.3258 20.2887 19.3814 20.9814 20.734C21.6742 22.0536 22.0206 23.7526 22.0206 25.8309C22.0206 27.8763 21.4433 29.6247 20.2887 31.0763C19.134 32.5278 17.732 33.5175 16.0825 34.0454C14.466 34.5402 12.5691 34.7876 10.3918 34.7876C6.33402 34.7876 2.8701 33.7814 0 31.7691L0.247423 31.3732C1.33608 32.2309 2.73814 32.9402 4.45361 33.501C6.20206 34.0289 7.98351 34.2928 9.79794 34.2928C12.4701 34.2928 14.7464 33.6825 16.6268 32.4619C18.5402 31.2082 19.4969 29.3773 19.4969 26.9691C19.4969 24.3299 18.2433 22.268 15.7361 20.7835C14.6144 20.1237 13.3773 19.5134 12.0247 18.9526C10.7052 18.3918 9.36907 17.8144 8.01649 17.2206C6.66392 16.5938 5.4268 15.901 4.30515 15.1423C1.79794 13.4928 0.54433 11.1505 0.54433 8.11546C0.54433 5.70722 1.35258 3.76083 2.96907 2.27629C4.58557 0.758763 7.01031 0 10.2433 0C13.5093 0 16.8247 0.560824 20.1897 1.68247L19.9918 2.17732Z" fill="#924648"/>
</svg>
