<?xml version="1.0" encoding="utf-8"?>
<!-- Generator: Adobe Illustrator 28.1.0, SVG Export Plug-In . SVG Version: 6.00 Build 0)  -->
<svg version="1.1" id="Livello_1" xmlns="http://www.w3.org/2000/svg" xmlns:xlink="http://www.w3.org/1999/xlink" x="0px" y="0px"
	 viewBox="0 0 133.8 36" style="enable-background:new 0 0 133.8 36;" xml:space="preserve">
<style type="text/css">
	.st0{fill:#FFFFFF;}
	.st1{fill-rule:evenodd;clip-rule:evenodd;fill:#103928;}
	.st2{enable-background:new    ;}
	.st3{fill:#103928;}
</style>
<g>
	<path class="st0" d="M6.7,0h120.4c3.7,0,6.7,3.6,6.7,8v20c0,4.4-3,8-6.7,8H6.7C3,36,0,32.4,0,28V8C0,3.6,3,0,6.7,0z"/>
	<path class="st1" d="M21.8,8.8c2.4,0,4.8,1,6.5,2.6c1.8,1.7,2.8,4,2.9,6.5c0.1,2.4-0.8,4.8-2.4,6.6c-1.8,2-4.2,3.1-6.8,3.2
		c-0.1,0-0.2,0-0.3,0c-1.4,0-2.8-0.3-4.1-0.9l-5,1.1c0,0-0.1,0-0.1-0.1l0,0l0.8-5c-0.7-1.3-1.1-2.8-1.2-4.3
		c-0.1-2.5,0.8-4.9,2.6-6.8C16.6,9.9,19.1,8.8,21.8,8.8C21.7,8.8,21.8,8.8,21.8,8.8z M21.7,10.4c-0.1,0-0.2,0-0.2,0
		c-4.3,0.1-7.7,3.7-7.6,8c0,1.3,0.4,2.6,1.1,3.7l0.1,0.2l-0.6,3.4l3.4-0.8l0.3,0.1c1.1,0.6,2.4,0.9,3.6,0.9c0.1,0,0.1,0,0.2,0
		c4.3-0.1,7.7-3.7,7.6-8C29.4,13.8,25.9,10.4,21.7,10.4z M18.5,13.7c0.2,0,0.3,0,0.5,0s0.4,0,0.5,0.4c0.2,0.5,0.6,1.7,0.7,1.8
		s0.1,0.3,0,0.4c-0.1,0.2-0.1,0.3-0.2,0.4s-0.3,0.3-0.4,0.4s-0.3,0.2-0.1,0.5c0.1,0.2,0.6,1,1.3,1.7c0.9,0.8,1.6,1.1,1.9,1.2
		c0.1,0,0.2,0.1,0.3,0.1c0.1,0,0.2,0,0.3-0.1c0.1-0.1,0.6-0.7,0.8-0.9c0.1-0.1,0.2-0.2,0.3-0.2c0.1,0,0.2,0,0.3,0.1
		c0.2,0.1,1.4,0.7,1.6,0.8c0.2,0.1,0.4,0.2,0.4,0.3c0.1,0.1,0,0.6-0.2,1.1s-1.2,1.1-1.6,1.1c-0.1,0-0.3,0-0.4,0
		c-0.4,0-1-0.1-2.4-0.7c-2.4-1-3.8-3.6-3.9-3.7c-0.1-0.2-0.9-1.3-0.9-2.5s0.7-1.7,0.9-2C18,13.7,18.3,13.7,18.5,13.7
		C18.4,13.7,18.5,13.7,18.5,13.7z"/>
	<g class="st2">
		<path class="st3" d="M47.8,13.4V20c0,0.9-0.3,1.6-0.8,2.1s-1.2,0.8-2.1,0.8c-0.9,0-1.6-0.3-2.2-0.8c-0.6-0.5-0.8-1.2-0.8-2.2h1.9
			c0,0.4,0.1,0.7,0.3,0.9c0.2,0.2,0.5,0.3,0.8,0.3c0.3,0,0.6-0.1,0.8-0.3c0.2-0.2,0.3-0.5,0.3-0.9v-6.6H47.8z"/>
		<path class="st3" d="M56.9,19.7h-5.5c0,0.5,0.2,1,0.6,1.3c0.3,0.3,0.7,0.5,1.2,0.5c0.7,0,1.2-0.3,1.5-0.9h2
			c-0.2,0.7-0.6,1.3-1.2,1.8c-0.6,0.5-1.4,0.7-2.3,0.7c-0.7,0-1.4-0.2-1.9-0.5c-0.6-0.3-1-0.8-1.3-1.4s-0.5-1.3-0.5-2
			c0-0.8,0.2-1.5,0.5-2c0.3-0.6,0.8-1,1.3-1.3c0.6-0.3,1.2-0.5,2-0.5c0.7,0,1.3,0.2,1.9,0.5c0.6,0.3,1,0.7,1.3,1.3
			c0.3,0.6,0.5,1.2,0.5,1.9C57,19.2,56.9,19.4,56.9,19.7z M55,18.4c0-0.5-0.2-0.9-0.5-1.2c-0.3-0.3-0.8-0.4-1.3-0.4
			c-0.5,0-0.9,0.1-1.2,0.4s-0.5,0.7-0.6,1.2H55z"/>
		<path class="st3" d="M61.5,17.1c0.3-0.6,0.8-1,1.3-1.3c0.6-0.3,1.2-0.5,1.9-0.5c0.9,0,1.7,0.2,2.3,0.7c0.6,0.5,1,1.1,1.2,2h-2
			c-0.1-0.3-0.3-0.6-0.5-0.8s-0.6-0.3-1-0.3c-0.5,0-1,0.2-1.3,0.6S63,18.4,63,19.1c0,0.7,0.2,1.3,0.5,1.7s0.7,0.6,1.3,0.6
			c0.8,0,1.3-0.3,1.5-1h2c-0.2,0.8-0.6,1.5-1.2,1.9c-0.6,0.5-1.4,0.7-2.3,0.7c-0.7,0-1.4-0.2-1.9-0.5c-0.6-0.3-1-0.8-1.3-1.3
			c-0.3-0.6-0.5-1.3-0.5-2C61.1,18.3,61.2,17.6,61.5,17.1z"/>
		<path class="st3" d="M71,22.5c-0.6-0.3-1-0.8-1.4-1.4s-0.5-1.3-0.5-2c0-0.8,0.2-1.4,0.5-2s0.8-1,1.4-1.4s1.2-0.5,2-0.5
			c0.7,0,1.4,0.2,2,0.5c0.6,0.3,1,0.8,1.4,1.4c0.3,0.6,0.5,1.3,0.5,2c0,0.8-0.2,1.4-0.5,2c-0.3,0.6-0.8,1-1.4,1.4S73.7,23,73,23
			C72.3,23,71.6,22.8,71,22.5z M73.9,21.1c0.3-0.2,0.5-0.4,0.7-0.7c0.2-0.3,0.3-0.7,0.3-1.2c0-0.7-0.2-1.3-0.6-1.6
			c-0.4-0.4-0.8-0.6-1.4-0.6s-1,0.2-1.4,0.6c-0.4,0.4-0.5,0.9-0.5,1.6c0,0.7,0.2,1.3,0.5,1.6s0.8,0.6,1.3,0.6
			C73.3,21.3,73.6,21.2,73.9,21.1z"/>
		<path class="st3" d="M84.6,16.1c0.5,0.6,0.8,1.3,0.8,2.4v4.4h-1.9v-4.1c0-0.6-0.1-1.1-0.4-1.4s-0.7-0.5-1.2-0.5
			c-0.5,0-0.9,0.2-1.2,0.5c-0.3,0.3-0.5,0.8-0.5,1.4v4.1h-1.9v-7.5h1.9v0.9c0.3-0.3,0.6-0.6,1-0.8c0.4-0.2,0.8-0.3,1.3-0.3
			C83.3,15.2,84,15.5,84.6,16.1z"/>
		<path class="st3" d="M90.6,16.9h-1.3v5.9h-1.9v-5.9h-0.9v-1.6h0.9V15c0-0.9,0.3-1.6,0.8-2c0.5-0.4,1.3-0.6,2.4-0.6v1.6
			c-0.5,0-0.8,0.1-1,0.2s-0.3,0.5-0.3,0.9v0.3h1.3V16.9z"/>
		<path class="st3" d="M92,14.1c-0.2-0.2-0.3-0.5-0.3-0.8c0-0.3,0.1-0.6,0.3-0.8c0.2-0.2,0.5-0.3,0.8-0.3c0.3,0,0.6,0.1,0.8,0.3
			c0.2,0.2,0.3,0.5,0.3,0.8c0,0.3-0.1,0.6-0.3,0.8c-0.2,0.2-0.5,0.3-0.8,0.3C92.5,14.5,92.2,14.4,92,14.1z M93.7,15.4v7.5h-1.9v-7.5
			H93.7z"/>
		<path class="st3" d="M98.4,15.6c0.4-0.2,0.8-0.3,1.3-0.3v2h-0.5c-0.6,0-1,0.1-1.3,0.4c-0.3,0.3-0.5,0.8-0.5,1.5v3.7h-1.9v-7.5h1.9
			v1.2C97.7,16.1,98.1,15.8,98.4,15.6z"/>
		<path class="st3" d="M112.6,16.1c0.6,0.6,0.8,1.3,0.8,2.4v4.4h-1.9v-4.1c0-0.6-0.1-1-0.4-1.3s-0.7-0.5-1.2-0.5s-0.9,0.2-1.2,0.5
			c-0.3,0.3-0.5,0.8-0.5,1.3v4.1h-1.9v-4.1c0-0.6-0.1-1-0.4-1.3s-0.7-0.5-1.2-0.5c-0.5,0-0.9,0.2-1.2,0.5s-0.5,0.8-0.5,1.3v4.1h-1.9
			v-7.5h1.9v0.9c0.2-0.3,0.6-0.6,0.9-0.7c0.4-0.2,0.8-0.3,1.3-0.3c0.6,0,1.1,0.1,1.6,0.4c0.5,0.2,0.8,0.6,1.1,1.1
			c0.2-0.4,0.6-0.8,1.1-1c0.5-0.3,1-0.4,1.5-0.4C111.3,15.2,112,15.5,112.6,16.1z"/>
		<path class="st3" d="M122.1,19.7h-5.5c0,0.5,0.2,1,0.6,1.3c0.3,0.3,0.7,0.5,1.2,0.5c0.7,0,1.2-0.3,1.5-0.9h2
			c-0.2,0.7-0.6,1.3-1.2,1.8c-0.6,0.5-1.4,0.7-2.3,0.7c-0.7,0-1.4-0.2-1.9-0.5c-0.6-0.3-1-0.8-1.3-1.4s-0.5-1.3-0.5-2
			c0-0.8,0.2-1.5,0.5-2c0.3-0.6,0.8-1,1.3-1.3c0.6-0.3,1.2-0.5,2-0.5c0.7,0,1.3,0.2,1.9,0.5c0.6,0.3,1,0.7,1.3,1.3s0.5,1.2,0.5,1.9
			C122.2,19.2,122.1,19.4,122.1,19.7z M120.2,18.4c0-0.5-0.2-0.9-0.5-1.2c-0.3-0.3-0.8-0.4-1.3-0.4c-0.5,0-0.9,0.1-1.2,0.4
			s-0.5,0.7-0.6,1.2H120.2z"/>
	</g>
</g>
</svg>
